<svg xmlns="http://www.w3.org/2000/svg" xmlns:xlink="http://www.w3.org/1999/xlink" width="1.2em" height="1.2em" viewBox="0 0 24 24"><path fill="#9933ff" d="M20.98 9.69L14 2.71a2.1 2.1 0 0 0-2.98 0L3.02 9.69a2.1 2.1 0 0 0-.01 2.97l6.97 6.98c.82.82 2.15.82 2.97 0l6.98-6.98a2.1 2.1 0 0 0-.01-2.97zM12 18.25l-6.26-6.26l6.26-6.26l6.26 6.26z"></path><path fill="#9933ff" d="M12 16.71c-2.76 0-5-2.24-5-5s2.24-5 5-5s5 2.24 5 5s-2.24 5-5 5zm0-8c-1.65 0-3 1.35-3 3s1.35 3 3 3s3-1.35 3-3s-1.35-3-3-3z"></path></svg>