<svg xmlns="http://www.w3.org/2000/svg" width="26" height="26" fill="none" viewBox="0 0 26 26">
  <path fill="#fff" d="M25.432 5.099c-.439-1.282-2.14-1.282-2.14-1.282H17.43c-.783-1.464-2.285-2.286-4.14-2.286-1.854 0-3.357.822-4.14 2.286H2.71c-1.282 0-2.14 1.282-2.14 1.282S0 6.643.568 7.925l8.571 14.858c.439 1.282 2.14 1.282 2.14 1.282s1.282-.439 1.719-1.282l4.14-7.286c.439-.822.439-1.719 0-2.571l-2.14-3.715c-.439-.822-1.282-.822-1.719 0l-1.282 2.286c-.439.822-1.282.822-1.719 0l-2.14-3.715c-.439-.822-1.282-.822-1.719 0L6.427 12.86c-.439.822-1.282.822-1.719 0l-2.14-3.715c-.439-.822-1.282-.822-1.719 0L.568 7.925c-.439-1.282-.439-2.14 0-2.571Z"/>
</svg>
